<?xml version="1.0" encoding="utf-8"?>
<!-- Generator: Adobe Illustrator 23.0.3, SVG Export Plug-In . SVG Version: 6.00 Build 0)  -->
<svg version="1.1" id="Layer_1" xmlns="http://www.w3.org/2000/svg" xmlns:xlink="http://www.w3.org/1999/xlink" x="0px" y="0px"
	 viewBox="0 0 31.81 55.09" style="enable-background:new 0 0 31.81 55.09;" xml:space="preserve">
<style type="text/css">
	.st0{fill:#FFFFFF;}
</style>
<g>
	<g>
		<g>
			<path class="st0" d="M20.66,15.04c0-3.38-2.15-5.7-5.85-5.7c-2.89,0-5.27,1.46-7.36,3.7L2.84,8.82c3.2-3.61,7.59-6.22,12.98-6.22
				c7.48,0,12.81,4.1,12.81,11.86c0,9.11-11.15,12.35-10.14,21.58h-7.25C9.74,25.59,20.66,21.52,20.66,15.04z M9.6,46.76
				c0-3.24,2.32-5.62,5.33-5.62s5.33,2.38,5.33,5.62c0,3.18-2.32,5.56-5.33,5.56S9.6,49.94,9.6,46.76z"/>
		</g>
	</g>
</g>
</svg>
