<svg xmlns="http://www.w3.org/2000/svg" width="12" height="12" viewBox="0 0 24.18 24.186">
  <defs>
    <style>
      .cls-1 {
        fill: #666;
      }
    </style>
  </defs>
  <path id="phone" class="cls-1" d="M24.609,4.068l-.054-.054-2.9-2.528A1.948,1.948,0,0,0,20.117.975a2.329,2.329,0,0,0-1.4.645l-.081.081-2.851,3.6a2.022,2.022,0,0,0,.054,2.824A.713.713,0,0,0,16,8.264l1.452.968c-.108.511-.861,1.963-3.523,4.626-2.636,2.636-4.115,3.389-4.6,3.5L8.365,15.9a.713.713,0,0,0-.134-.161,2.048,2.048,0,0,0-2.824-.054L1.829,18.537l-.081.081a2.162,2.162,0,0,0-.134,2.931l2.528,2.878.054.054a2.876,2.876,0,0,0,2.071.672,12.208,12.208,0,0,0,4.061-.941,25.237,25.237,0,0,0,8.418-5.648,25.767,25.767,0,0,0,5.648-8.418C24.878,8.8,26.007,5.467,24.609,4.068ZM17.186,17.085C12.21,22.06,6.617,23.432,5.675,22.975L3.228,20.151h0l3.5-2.77.941,1.425c.027.027.027.054.054.081a1.739,1.739,0,0,0,1.318.645c.511.027,2.1.108,6.374-4.169,1.049-1.049,4.276-4.276,4.169-6.374a1.832,1.832,0,0,0-.645-1.318c-.027-.027-.054-.054-.081-.054L17.482,6.65l2.77-3.523h0l2.8,2.447C23.533,6.516,22.161,12.11,17.186,17.085Z" transform="translate(-1.104 -0.967)"/>
</svg>
